<svg viewBox="0 0 96 96" xmlns="http://www.w3.org/2000/svg" xmlns:xlink="http://www.w3.org/1999/xlink" id="Icons_Judge" overflow="hidden"><path d="M27.79 74.54 16.79 63.48 19.79 60.48C20.2177 60.8993 20.9023 60.8993 21.33 60.48L22.76 59 15.24 51.47 13.77 52.94C13.3453 53.3655 13.3453 54.0545 13.77 54.48L5.56 62.63C5.1345 62.2053 4.4455 62.2053 4.02 62.63L2.55 64.13 10.08 71.65 11.55 70.19C11.9693 69.7623 11.9693 69.0777 11.55 68.65L14.45 65.74 25.54 76.79C26.1613 77.4113 27.1687 77.4113 27.79 76.79 28.4113 76.1687 28.4113 75.1613 27.79 74.54Z"/><path d="M76.8 59.6C72.4 56 66.8 53.6 61.2 52L61.1 52 52 72 52 50.19C50.7 50.07 49.37 50 48 50 46.6637 50.0035 45.3286 50.0769 44 50.22L44 72 34.9 52 34.8 52C30.8424 53.1563 27.0384 54.7847 23.47 56.85L25.59 59 22.71 61.88C22.1401 62.4724 21.352 62.805 20.53 62.8L20.29 62.8 19.57 63.52 29.21 73.16C30.6457 74.5354 30.6945 76.8143 29.3191 78.25 27.9436 79.6857 25.6648 79.7345 24.2291 78.3591 24.1919 78.3235 24.1556 78.2871 24.12 78.25L16 70.09 16 82 80 82 80 66C79.9478 63.4946 78.773 61.1451 76.8 59.6Z"/><path d="M68.74 35.52C71.6418 33.9199 72.697 30.2704 71.0969 27.3686 70.2662 25.8622 68.8289 24.7848 67.15 24.41 69.2583 21.8535 68.8949 18.0719 66.3384 15.9636 64.4993 14.4469 61.9367 14.1629 59.81 15.24 59.8924 14.8317 59.936 14.4165 59.94 14 59.8605 10.6872 57.1105 8.06618 53.7978 8.14568 51.4625 8.20172 49.372 9.60804 48.44 11.75 47.1179 8.71148 43.5828 7.32008 40.5443 8.64223 38.4024 9.57425 36.996 11.6647 36.94 14 36.9404 14.4272 36.9873 14.853 37.08 15.27 34.1238 13.7728 30.5136 14.9554 29.0164 17.9116 27.9393 20.0383 28.2233 22.6008 29.74 24.44 26.5059 25.162 24.4694 28.369 25.1914 31.6031 25.5662 33.282 26.6436 34.7193 28.15 35.55 25.6021 37.6687 25.2541 41.4517 27.3728 43.9996 29.4915 46.5475 33.2745 46.8955 35.8224 44.7768 36.6435 44.094 37.2675 43.2045 37.63 42.2 43.8761 47.5173 53.1317 47.2495 59.06 41.58 59.8294 44.8032 63.0659 46.7924 66.2891 46.023 69.5123 45.2536 71.5014 42.0171 70.7321 38.7939 70.4318 37.5359 69.7331 36.4086 68.74 35.58Z"/></svg>