<svg viewBox="0 0 96 96" xmlns="http://www.w3.org/2000/svg" xmlns:xlink="http://www.w3.org/1999/xlink" id="Icons_Police" overflow="hidden"><path d="M76.8 59.6C72.4 56 66.8 53.6 61.2 52 60.5173 51.7978 59.8116 51.6836 59.1 51.66L56.26 60.2C56.18 60.4527 55.9103 60.5928 55.6576 60.5128 55.5733 60.4862 55.498 60.4367 55.44 60.37L48 53 40.58 60.35C40.3969 60.5493 40.087 60.5625 39.8877 60.3794 39.8229 60.3199 39.7754 60.2442 39.75 60.16L37.25 51.65C36.4223 51.6683 35.5997 51.7858 34.8 52 29.2073 53.632 23.9323 56.2019 19.2 59.6 17.227 61.1451 16.0522 63.4946 16 66L16 82 44 82 45.11 66 50.93 66 52 82 80 82 80 66C79.9478 63.4946 78.773 61.1451 76.8 59.6ZM51 64 45 64 44 60 48 56 52 60ZM69.85 67.3C69.85 70.85 65.72 72 65.72 72 65.72 72 61.6 70.85 61.6 67.3 61.6 65.88 62.02 65.88 62.02 64.74 61.9483 64.2699 61.7514 63.8278 61.45 63.46L62.86 62.05C63.6716 62.7852 64.9084 62.7852 65.72 62.05 66.1137 62.3937 66.6174 62.5852 67.14 62.59 67.6735 62.5921 68.1881 62.392 68.58 62.03L70 63.46C69.7031 63.8305 69.5067 64.2714 69.43 64.74 69.43 65.88 69.86 65.88 69.86 67.3Z"/><path d="M48.38 32.76C42.6445 32.7539 37.0454 31.0107 32.32 27.76 30.5618 36.4199 36.1567 44.8654 44.8166 46.6236 53.4765 48.3817 61.922 42.7868 63.6802 34.1269 63.8892 33.0976 63.9963 32.0503 64 31 63.9935 30.0813 63.9098 29.1647 63.75 28.26 59.1626 31.1993 53.8283 32.761 48.38 32.76Z"/><path d="M69.1 11.42C65.931 10.7709 62.8077 9.91574 59.75 8.86 57.5 8 51.93 5.35 49.66 4.15 48.9357 3.76065 48.0643 3.76065 47.34 4.15 45.07 5.35 39.5 8 37.25 8.86 34.1923 9.91574 31.069 10.7709 27.9 11.42 26.5953 11.7098 25.7726 13.0025 26.0624 14.3072 26.1618 14.7549 26.3864 15.1651 26.71 15.49L30.71 19.49 30.71 20.8C30.7111 22.2217 31.41 23.5523 32.58 24.36L33.87 25.25C42.3526 31.098 53.5197 31.2715 62.18 25.69L64.25 24.35C65.493 23.5564 66.2467 22.1848 66.25 20.71L66.25 19.52 70.25 15.52C71.1931 14.5729 71.1898 13.0407 70.2428 12.0976 69.9178 11.774 69.5077 11.5494 69.06 11.45ZM52.1 15.69C52.1 18.82 48.46 19.83 48.46 19.83 48.46 19.83 44.82 18.83 44.82 15.69 44.82 14.43 45.19 14.43 45.19 13.43 45.1262 13.0157 44.9537 12.6258 44.69 12.3L46 11.05C46.3415 11.3691 46.7927 11.5445 47.26 11.54 47.7234 11.5431 48.1718 11.3758 48.52 11.07 48.8705 11.3719 49.3174 11.5386 49.78 11.54 50.2335 11.5344 50.6686 11.3596 51 11.05L52.25 12.3C51.9884 12.6271 51.8161 13.0164 51.75 13.43 51.77 14.43 52.14 14.43 52.14 15.69Z"/></svg>