<svg viewBox="0 0 96 96" xmlns="http://www.w3.org/2000/svg" xmlns:xlink="http://www.w3.org/1999/xlink" id="Icons_Handcuffs" overflow="hidden"><path d="M54 26.5 50.8 24.1C50.4 23.8 50.1 23.4 49.9 22.9L51.3 23.2C51.4 23.2 51.5 23.2 51.6 23.2 52.3 23.2 52.9 22.7 53.1 22 53.3 21.2 52.7 20.4 51.9 20.2L50.8 20C51.1 19.8 51.5 19.6 51.8 19.6 51.9 19.6 52.1 19.6 52.2 19.6 52.7 19.6 53.2 19.8 53.7 20.1L56.9 22.5C57.8 23.2 58.1 24.3 57.8 25.3L57.6 24.9C57.2 24.2 56.3 23.9 55.6 24.2 54.9 24.6 54.6 25.5 54.9 26.2L55.3 27C54.9 26.9 54.4 26.8 54 26.5ZM60.2 37.7C59.7 36.7 60.1 35.5 61.1 35 62 34.5 63.1 34.9 63.7 35.7 64.2 36.7 63.8 37.9 62.8 38.4 61.9 38.9 60.8 38.6 60.2 37.7ZM40.4 21.7 36.4 21.9C36 21.9 35.6 21.8 35.3 21.7L36.2 21.2C36.9 20.8 37.2 19.9 36.7 19.1 36.3 18.4 35.4 18.1 34.6 18.6L33.8 19C33.9 18.5 34.1 18 34.4 17.7 34.8 17.2 35.5 16.9 36.1 16.9L40.1 16.7 40.2 16.7C40.8 16.7 41.4 16.9 41.9 17.3 42.2 17.6 42.5 18 42.6 18.4L41.3 18.1C40.5 17.9 39.7 18.5 39.5 19.3 39.3 20.1 39.9 20.9 40.7 21.1L41.5 21.3C41.2 21.5 40.8 21.6 40.4 21.7ZM27.6 29.3C27.5 30 27.1 30.6 26.5 31L26.5 29.4C26.5 28.6 25.8 27.9 25 27.9 24.2 27.9 23.5 28.6 23.5 29.4L23.5 30.8C22.9 30.3 22.5 29.4 22.6 28.6L23.2 24.6C23.3 23.9 23.6 23.4 24.2 23 24.7 22.6 25.4 22.4 26.1 22.5 26.5 22.6 26.9 22.7 27.2 22.9L26 23.6C25.3 24 25 24.9 25.5 25.7 25.8 26.2 26.3 26.4 26.8 26.4 27.1 26.4 27.3 26.3 27.6 26.2L28.2 25.8 27.6 29.3ZM27 42C27 43.1 26.1 44 25 44 23.9 44 23 43.1 23 42 23 40.9 23.9 40 25 40 26.1 40 27 40.9 27 42ZM88.8 45.4C85.1 38.1 77.5 34 69.8 34.5L68.3 31.4C68.2 31.1 68 30.9 67.8 30.7 66.7 29.1 64.5 28.5 62.7 29.4L60.5 30.5 59.3 28.2C59.5 28 59.7 27.8 59.9 27.6 61.7 25.1 61.1 21.7 58.7 19.9L55.5 17.5C54.3 16.6 52.9 16.3 51.4 16.5 49.9 16.7 48.7 17.5 47.8 18.7 47.7 18.9 47.6 19.1 47.5 19.2L45.7 19C45.7 18.9 45.7 18.9 45.7 18.8 45.6 17.3 45 16 43.9 15 42.8 14 41.4 13.5 39.9 13.6L35.9 13.8C32.9 14 30.5 16.6 30.7 19.6 30.7 20 30.8 20.3 30.9 20.7L29.8 21.4C28.9 20.4 27.8 19.8 26.5 19.6 25 19.4 23.6 19.8 22.4 20.6 21.2 21.5 20.5 22.8 20.3 24.2L19.7 28.2C19.5 29.7 19.9 31.1 20.7 32.3 21.4 33.2 22.4 33.9 23.5 34.2L23.5 36 21 36C18.8 36 17 37.8 17 40L17 43.7C9.9 46.8 5 53.8 5 62 5 73 14 82 25 82 29.4 82 33.5 80.5 36.8 78.1L32.5 73.8C30.4 75.2 27.8 76 25 76 17.3 76 11 69.7 11 62 11 54.3 17.3 48 25 48 32.7 48 39 54.3 39 62 39 64.8 38.2 67.4 36.8 69.5L39.7 72.4C41.8 69.5 43 65.9 43 62 43 55 38.9 48.9 33 45.9L33 40C33 37.8 31.2 36 29 36L26.5 36 26.5 34.3C28.6 33.8 30.3 32 30.6 29.8L31.2 25.8C31.3 25.2 31.2 24.7 31.2 24.1L32.6 23.3C32.6 23.3 32.7 23.4 32.7 23.5 33.7 24.4 35 24.9 36.4 24.9 36.5 24.9 36.6 24.9 36.7 24.9L40.7 24.7C42.2 24.6 43.5 24 44.5 22.9 44.8 22.6 45 22.3 45.2 22L47 22.4C47 22.6 47 22.8 47 23 47.2 24.5 48 25.7 49.2 26.6L52.4 29C53.4 29.7 54.5 30.1 55.6 30.1 56 30.1 56.5 30 56.9 29.9L58 32.1 55.8 33.2C53.8 34.2 53 36.6 54 38.6L56 42.6 56.6 43.9C54.4 46.9 53.1 50.6 53 54.3 52.9 57.2 53.5 60.1 54.9 62.9 56.6 66.4 59.4 69 62.5 70.7L62.6 70.5 63.9 66.6C61.7 65.3 59.8 63.4 58.5 60.9 57.4 58.8 56.9 56.5 57 54.3 57.2 49.3 60 44.6 64.7 42.3 71.6 38.8 80 41.7 83.5 48.6 84.5 50.7 85 52.9 85 55.1 84.8 60 82 64.7 77.4 67.1 74.9 68.4 72.2 68.8 69.7 68.5L69.6 68.7 67.7 74.5C71.8 75.2 76.1 74.7 80 72.7 86.9 69.3 90.9 62.4 91 55.3 91.1 51.9 90.4 48.6 88.8 45.4Z"/></svg>